<svg width="58" height="58" viewBox="0 0 58 58" fill="none" xmlns="http://www.w3.org/2000/svg">
<path d="M56.1875 12.6875V16.3125H1.8125V12.6875C1.81207 10.5983 2.53348 8.57315 3.85463 6.95474C5.17578 5.33633 7.01553 4.22409 9.0625 3.80625V5.4375C9.0625 6.43438 9.87812 7.25 10.875 7.25C11.8719 7.25 12.6875 6.43438 12.6875 5.4375V3.625H18.125V5.4375C18.125 6.43438 18.9406 7.25 19.9375 7.25C20.9344 7.25 21.75 6.43438 21.75 5.4375V3.625H27.1875V5.4375C27.1875 6.43438 28.0031 7.25 29 7.25C29.9969 7.25 30.8125 6.43438 30.8125 5.4375V3.625H36.25V5.4375C36.25 6.43438 37.0656 7.25 38.0625 7.25C39.0594 7.25 39.875 6.43438 39.875 5.4375V3.625H45.3125V5.4375C45.3125 6.43438 46.1281 7.25 47.125 7.25C48.1219 7.25 48.9375 6.43438 48.9375 5.4375V3.80625C50.9845 4.22409 52.8242 5.33633 54.1454 6.95474C55.4665 8.57315 56.1879 10.5983 56.1875 12.6875ZM29 1.8125C28.0031 1.8125 27.1875 2.62812 27.1875 3.625H30.8125C30.8125 2.62812 29.9969 1.8125 29 1.8125ZM10.875 1.8125C9.87812 1.8125 9.0625 2.62812 9.0625 3.625V3.80625C9.6425 3.67937 10.2587 3.625 10.875 3.625H12.6875C12.6875 2.62812 11.8719 1.8125 10.875 1.8125ZM19.9375 1.8125C18.9406 1.8125 18.125 2.62812 18.125 3.625H21.75C21.75 2.62812 20.9344 1.8125 19.9375 1.8125ZM38.0625 1.8125C37.0656 1.8125 36.25 2.62812 36.25 3.625H39.875C39.875 2.62812 39.0594 1.8125 38.0625 1.8125ZM47.125 1.8125C46.1281 1.8125 45.3125 2.62812 45.3125 3.625H47.125C47.7413 3.625 48.3575 3.67937 48.9375 3.80625V3.625C48.9375 2.62812 48.1219 1.8125 47.125 1.8125ZM56.1875 43.5C56.1875 50.5144 50.5144 56.1875 43.5 56.1875C36.4856 56.1875 30.8125 50.5144 30.8125 43.5C30.8125 36.4856 36.4856 30.8125 43.5 30.8125C50.5144 30.8125 56.1875 36.4856 56.1875 43.5ZM48.9375 43.5C48.9375 42.5031 48.1219 41.6875 47.125 41.6875H45.3125V38.0625C45.3125 37.0656 44.4969 36.25 43.5 36.25C42.5031 36.25 41.6875 37.0656 41.6875 38.0625V43.5C41.6875 44.4969 42.5031 45.3125 43.5 45.3125H47.125C48.1219 45.3125 48.9375 44.4969 48.9375 43.5ZM56.1875 19.9375V33.2775C54.6649 31.3758 52.734 29.841 50.5377 28.7868C48.3415 27.7326 45.9362 27.186 43.5 27.1875C34.51 27.1875 27.1875 34.51 27.1875 43.5C27.186 45.9362 27.7326 48.3415 28.7868 50.5377C29.841 52.734 31.3758 54.6649 33.2775 56.1875H10.875C5.8725 56.1875 1.8125 52.1275 1.8125 47.125V19.9375H56.1875ZM14.5 47.125C14.5 46.1281 13.6844 45.3125 12.6875 45.3125C11.6906 45.3125 10.875 46.1281 10.875 47.125C10.875 48.1219 11.6906 48.9375 12.6875 48.9375C13.6844 48.9375 14.5 48.1219 14.5 47.125ZM14.5 38.0625C14.5 37.0656 13.6844 36.25 12.6875 36.25C11.6906 36.25 10.875 37.0656 10.875 38.0625C10.875 39.0594 11.6906 39.875 12.6875 39.875C13.6844 39.875 14.5 39.0594 14.5 38.0625ZM14.5 29C14.5 28.0031 13.6844 27.1875 12.6875 27.1875C11.6906 27.1875 10.875 28.0031 10.875 29C10.875 29.9969 11.6906 30.8125 12.6875 30.8125C13.6844 30.8125 14.5 29.9969 14.5 29ZM25.375 47.125C25.375 46.1281 24.5594 45.3125 23.5625 45.3125C22.5656 45.3125 21.75 46.1281 21.75 47.125C21.75 48.1219 22.5656 48.9375 23.5625 48.9375C24.5594 48.9375 25.375 48.1219 25.375 47.125ZM25.375 38.0625C25.375 37.0656 24.5594 36.25 23.5625 36.25C22.5656 36.25 21.75 37.0656 21.75 38.0625C21.75 39.0594 22.5656 39.875 23.5625 39.875C24.5594 39.875 25.375 39.0594 25.375 38.0625ZM25.375 29C25.375 28.0031 24.5594 27.1875 23.5625 27.1875C22.5656 27.1875 21.75 28.0031 21.75 29C21.75 29.9969 22.5656 30.8125 23.5625 30.8125C24.5594 30.8125 25.375 29.9969 25.375 29Z" fill="#FFFF84"/>
<path d="M56.1875 12.6875V16.3125H1.8125V12.6875C1.81207 10.5983 2.53348 8.57315 3.85463 6.95474C5.17578 5.33633 7.01553 4.22409 9.0625 3.80625V5.4375C9.0625 6.43438 9.87812 7.25 10.875 7.25C11.8719 7.25 12.6875 6.43438 12.6875 5.4375V3.625H18.125V5.4375C18.125 6.43438 18.9406 7.25 19.9375 7.25C20.9344 7.25 21.75 6.43438 21.75 5.4375V3.625H27.1875V5.4375C27.1875 6.43438 28.0031 7.25 29 7.25C29.9969 7.25 30.8125 6.43438 30.8125 5.4375V3.625H36.25V5.4375C36.25 6.43438 37.0656 7.25 38.0625 7.25C39.0594 7.25 39.875 6.43438 39.875 5.4375V3.625H45.3125V5.4375C45.3125 6.43438 46.1281 7.25 47.125 7.25C48.1219 7.25 48.9375 6.43438 48.9375 5.4375V3.80625C50.9845 4.22409 52.8242 5.33633 54.1454 6.95474C55.4665 8.57315 56.1879 10.5983 56.1875 12.6875ZM29 1.8125C28.0031 1.8125 27.1875 2.62812 27.1875 3.625H30.8125C30.8125 2.62812 29.9969 1.8125 29 1.8125ZM10.875 1.8125C9.87812 1.8125 9.0625 2.62812 9.0625 3.625V3.80625C9.6425 3.67937 10.2587 3.625 10.875 3.625H12.6875C12.6875 2.62812 11.8719 1.8125 10.875 1.8125ZM19.9375 1.8125C18.9406 1.8125 18.125 2.62812 18.125 3.625H21.75C21.75 2.62812 20.9344 1.8125 19.9375 1.8125ZM38.0625 1.8125C37.0656 1.8125 36.25 2.62812 36.25 3.625H39.875C39.875 2.62812 39.0594 1.8125 38.0625 1.8125ZM47.125 1.8125C46.1281 1.8125 45.3125 2.62812 45.3125 3.625H47.125C47.7413 3.625 48.3575 3.67937 48.9375 3.80625V3.625C48.9375 2.62812 48.1219 1.8125 47.125 1.8125ZM56.1875 43.5C56.1875 50.5144 50.5144 56.1875 43.5 56.1875C36.4856 56.1875 30.8125 50.5144 30.8125 43.5C30.8125 36.4856 36.4856 30.8125 43.5 30.8125C50.5144 30.8125 56.1875 36.4856 56.1875 43.5ZM48.9375 43.5C48.9375 42.5031 48.1219 41.6875 47.125 41.6875H45.3125V38.0625C45.3125 37.0656 44.4969 36.25 43.5 36.25C42.5031 36.25 41.6875 37.0656 41.6875 38.0625V43.5C41.6875 44.4969 42.5031 45.3125 43.5 45.3125H47.125C48.1219 45.3125 48.9375 44.4969 48.9375 43.5ZM56.1875 19.9375V33.2775C54.6649 31.3758 52.734 29.841 50.5377 28.7868C48.3415 27.7326 45.9362 27.186 43.5 27.1875C34.51 27.1875 27.1875 34.51 27.1875 43.5C27.186 45.9362 27.7326 48.3415 28.7868 50.5377C29.841 52.734 31.3758 54.6649 33.2775 56.1875H10.875C5.8725 56.1875 1.8125 52.1275 1.8125 47.125V19.9375H56.1875ZM14.5 47.125C14.5 46.1281 13.6844 45.3125 12.6875 45.3125C11.6906 45.3125 10.875 46.1281 10.875 47.125C10.875 48.1219 11.6906 48.9375 12.6875 48.9375C13.6844 48.9375 14.5 48.1219 14.5 47.125ZM14.5 38.0625C14.5 37.0656 13.6844 36.25 12.6875 36.25C11.6906 36.25 10.875 37.0656 10.875 38.0625C10.875 39.0594 11.6906 39.875 12.6875 39.875C13.6844 39.875 14.5 39.0594 14.5 38.0625ZM14.5 29C14.5 28.0031 13.6844 27.1875 12.6875 27.1875C11.6906 27.1875 10.875 28.0031 10.875 29C10.875 29.9969 11.6906 30.8125 12.6875 30.8125C13.6844 30.8125 14.5 29.9969 14.5 29ZM25.375 47.125C25.375 46.1281 24.5594 45.3125 23.5625 45.3125C22.5656 45.3125 21.75 46.1281 21.75 47.125C21.75 48.1219 22.5656 48.9375 23.5625 48.9375C24.5594 48.9375 25.375 48.1219 25.375 47.125ZM25.375 38.0625C25.375 37.0656 24.5594 36.25 23.5625 36.25C22.5656 36.25 21.75 37.0656 21.75 38.0625C21.75 39.0594 22.5656 39.875 23.5625 39.875C24.5594 39.875 25.375 39.0594 25.375 38.0625ZM25.375 29C25.375 28.0031 24.5594 27.1875 23.5625 27.1875C22.5656 27.1875 21.75 28.0031 21.75 29C21.75 29.9969 22.5656 30.8125 23.5625 30.8125C24.5594 30.8125 25.375 29.9969 25.375 29Z" fill="url(#paint0_linear_2330_5585)"/>
<defs>
<linearGradient id="paint0_linear_2330_5585" x1="28.1884" y1="100.205" x2="33.337" y2="4.02573" gradientUnits="userSpaceOnUse">
<stop stop-color="#F2C36B" stop-opacity="0"/>
<stop offset="1" stop-color="#DD8F1F"/>
</linearGradient>
</defs>
</svg>
