<svg width="37" height="36" viewBox="0 0 37 36" fill="none" xmlns="http://www.w3.org/2000/svg">
<path d="M17.8862 35.8706C18.0824 35.9558 18.2941 35.9998 18.5081 35.9998C18.722 35.9998 18.9337 35.9558 19.13 35.8706C23.8128 33.8316 33.4196 24.1059 33.4196 14.9034C33.4196 6.67266 26.7469 0 18.5162 0H18.4845C10.253 0 3.58038 6.67266 3.58038 14.9034C3.58038 24.1066 13.2019 33.8323 17.8855 35.8706H17.8862Z" fill="url(#paint0_linear_2330_8821)"/>
<path d="M3.58038 14.9034C3.58038 19.5483 6.03148 24.326 9.06194 28.182C19.8247 28.1355 28.535 19.3978 28.535 8.62453C28.535 6.75352 28.2713 4.94367 27.7805 3.23016C25.2366 1.20797 22.0177 0 18.5162 0H18.4845C10.253 0 3.58038 6.67266 3.58038 14.9034Z" fill="url(#paint1_linear_2330_8821)"/>
<path d="M18.5 5.29175C13.3369 5.29175 9.15125 9.47745 9.15125 14.6405C9.15125 19.8035 13.3369 23.9892 18.5 23.9892C23.663 23.9892 27.8487 19.8035 27.8487 14.6405C27.8487 9.47745 23.663 5.29175 18.5 5.29175Z" fill="white"/>
<path d="M23.7552 13.242L18.4072 18.881C18.2491 19.0472 18.059 19.1797 17.8484 19.2705C17.6378 19.3614 17.411 19.4088 17.1816 19.4098H17.1739C16.7134 19.4098 16.2725 19.2235 15.9519 18.893L13.1499 15.9975C12.4946 15.3225 12.5108 14.2439 13.1858 13.5893C13.8601 12.934 14.9387 12.9502 15.594 13.6252L17.162 15.2494L21.2879 10.8935C21.9369 10.2122 23.0148 10.1855 23.6961 10.8345C24.3774 11.4828 24.4041 12.5607 23.7552 13.2427V13.242Z" fill="#FFC400"/>
<path d="M23.7552 13.242L18.4072 18.881C18.2491 19.0472 18.059 19.1797 17.8484 19.2705C17.6378 19.3614 17.411 19.4088 17.1816 19.4098H17.1739C16.7134 19.4098 16.2725 19.2235 15.9519 18.893L13.1499 15.9975C12.4946 15.3225 12.5108 14.2439 13.1858 13.5893C13.8601 12.934 14.9387 12.9502 15.594 13.6252L17.162 15.2494L21.2879 10.8935C21.9369 10.2122 23.0148 10.1855 23.6961 10.8345C24.3774 11.4828 24.4041 12.5607 23.7552 13.2427V13.242Z" fill="url(#paint2_linear_2330_8821)"/>
<defs>
<linearGradient id="paint0_linear_2330_8821" x1="18.5" y1="0" x2="18.5" y2="35.9998" gradientUnits="userSpaceOnUse">
<stop stop-color="#FFC400"/>
<stop offset="1" stop-color="#EF5261" stop-opacity="0.8"/>
</linearGradient>
<linearGradient id="paint1_linear_2330_8821" x1="16.0577" y1="0" x2="16.0577" y2="28.182" gradientUnits="userSpaceOnUse">
<stop stop-color="#FFC400"/>
<stop offset="1" stop-color="#EF5261" stop-opacity="0.8"/>
</linearGradient>
<linearGradient id="paint2_linear_2330_8821" x1="18.4469" y1="10.3646" x2="18.4469" y2="19.4098" gradientUnits="userSpaceOnUse">
<stop stop-color="#FFC400"/>
<stop offset="1" stop-color="#EF5261" stop-opacity="0.8"/>
</linearGradient>
</defs>
</svg>
