<svg width="29" height="27" viewBox="0 0 29 27" fill="none" xmlns="http://www.w3.org/2000/svg">
<g clip-path="url(#clip0_2330_3844)">
<path d="M14.8491 4.42209C14.8491 4.42209 17.1056 -0.252852 22.4949 0.292121C22.6138 0.30534 22.7286 0.34331 22.8319 0.403587C22.9352 0.463865 23.0248 0.545112 23.0948 0.642098C23.6872 1.4314 23.9913 2.39984 23.9565 3.38612C23.8547 5.18723 17.2043 6.57462 17.2043 6.57462L15.7949 6.29465L14.8491 4.42209Z" fill="black"/>
<path d="M20.4719 5.13993C19.0962 5.65414 17.6398 5.9188 16.1711 5.92148C18.1328 4.14832 20.6307 3.0814 23.2681 2.89016C23.5788 2.86461 23.6951 3.22022 23.4812 3.44734C22.9993 3.95762 21.7743 4.64293 20.4719 5.13993Z" fill="white"/>
<path d="M14.8481 4.42209C14.8481 4.42209 12.5916 -0.252852 7.20232 0.292121C7.08343 0.30534 6.96864 0.34331 6.86532 0.403587C6.762 0.463865 6.67244 0.545112 6.60243 0.642098C6.01001 1.4314 5.70589 2.39984 5.74073 3.38612C5.84261 5.18723 12.4929 6.57462 12.4929 6.57462L13.9024 6.29465L14.8481 4.42209Z" fill="black"/>
<path d="M9.2255 5.13993C10.6012 5.65414 12.0576 5.9188 13.5263 5.92148C12.4292 4.9455 11.1673 4.17234 9.79953 3.63808C8.71617 3.23402 7.58196 2.98232 6.42938 2.89016C6.1186 2.86461 6.00238 3.22022 6.21623 3.44734C6.69645 3.95762 7.92491 4.64293 9.2255 5.13993Z" fill="white"/>
<path d="M14.7054 7.67362C15.6394 7.67362 16.3966 6.91644 16.3966 5.98241C16.3966 5.04838 15.6394 4.2912 14.7054 4.2912C13.7713 4.2912 13.0142 5.04838 13.0142 5.98241C13.0142 6.91644 13.7713 7.67362 14.7054 7.67362Z" fill="white"/>
<path d="M1.05119 5.98206H28.3574C28.4494 5.98207 28.5376 6.01862 28.6027 6.08366C28.6677 6.14871 28.7043 6.23692 28.7043 6.3289V10.839C28.7043 10.931 28.6677 11.0192 28.6027 11.0842C28.5376 11.1493 28.4494 11.1858 28.3574 11.1858H1.05119C0.959208 11.1858 0.870996 11.1493 0.805953 11.0842C0.74091 11.0192 0.704362 10.931 0.704346 10.839V6.3289C0.704362 6.23692 0.74091 6.14871 0.805953 6.08366C0.870996 6.01862 0.959208 5.98207 1.05119 5.98206Z" fill="black"/>
<path d="M27.3245 10.2318V27.4052C27.3242 27.4971 27.2876 27.5851 27.2226 27.6501C27.1576 27.7151 27.0696 27.7517 26.9777 27.752H2.43254C2.34064 27.7517 2.25258 27.7151 2.18759 27.6501C2.12261 27.5851 2.08597 27.4971 2.08569 27.4052V10.2318H27.3245Z" fill="black"/>
<path d="M2.08569 11.1859H27.3249V12.4H2.08569V11.1859Z" fill="white"/>
<path d="M12.675 5.98206H16.7354V27.7517H12.675V5.98206Z" fill="white"/>
<path d="M12.6741 11.1859H16.7365V12.4H12.6741V11.1859Z" fill="white"/>
</g>
<defs>
<clipPath id="clip0_2330_3844">
<rect width="28" height="28" fill="white" transform="translate(0.704346)"/>
</clipPath>
</defs>
</svg>
