<svg width="78" height="78" viewBox="0 0 78 78" fill="none" xmlns="http://www.w3.org/2000/svg">
<path fill-rule="evenodd" clip-rule="evenodd" d="M45.7758 5.93985C45.5757 5.93985 45.3839 5.86038 45.2424 5.71892C45.1009 5.57746 45.0215 5.38559 45.0215 5.18553C45.0215 4.98548 45.1009 4.79361 45.2424 4.65215C45.3839 4.51069 45.5757 4.43121 45.7758 4.43121H50.5023C50.9581 4.43121 51.3738 4.61899 51.6755 4.92072L51.6771 4.92232L51.6787 4.92393L51.6804 4.92553C51.9821 5.22887 52.1683 5.64294 52.1683 6.09874V6.97665C52.1683 8.89455 51.5905 10.6873 50.6018 12.1895C49.5827 13.7382 48.1254 14.9741 46.4129 15.7187C46.2307 15.7965 46.025 15.799 45.8409 15.7258C45.6567 15.6526 45.509 15.5096 45.4298 15.328C45.3506 15.1463 45.3464 14.9407 45.4181 14.756C45.4899 14.5712 45.6317 14.4223 45.8127 14.3417C47.2549 13.7137 48.4833 12.6799 49.3484 11.3662C50.2075 10.0636 50.6646 8.53706 50.6628 6.97665V6.09874C50.6628 6.05381 50.6452 6.01529 50.6195 5.988L50.6163 5.98479C50.6017 5.97034 50.5844 5.95893 50.5654 5.95121C50.5464 5.9435 50.5261 5.93964 50.5055 5.93985H45.7758ZM32.3457 4.43282C32.5457 4.43282 32.7376 4.51229 32.879 4.65375C33.0205 4.79522 33.1 4.98708 33.1 5.18714C33.1 5.3872 33.0205 5.57906 32.879 5.72052C32.7376 5.86199 32.5457 5.94146 32.3457 5.94146H27.6207C27.5758 5.94146 27.5373 5.95911 27.51 5.9864L27.5068 5.98961C27.4795 6.01689 27.4634 6.05541 27.4634 6.10035V6.97825C27.4634 8.59763 27.9465 10.1079 28.7779 11.3678C29.6434 12.6811 30.8717 13.7148 32.3136 14.3433C32.4946 14.4239 32.6364 14.5729 32.7081 14.7576C32.7798 14.9423 32.7757 15.1479 32.6965 15.3296C32.6173 15.5112 32.4695 15.6542 32.2854 15.7274C32.1012 15.8006 31.8956 15.7981 31.7133 15.7203C30.0008 14.9757 28.5436 13.7399 27.5244 12.1911C26.5342 10.6873 25.958 8.89455 25.958 6.97825V6.09874C25.958 5.64455 26.1442 5.22887 26.4459 4.92553L26.4475 4.92393L26.4491 4.92232L26.4507 4.92072C26.7541 4.61899 27.1697 4.43121 27.6239 4.43121H32.3457V4.43282Z" fill="#FFAE06"/>
<path fill-rule="evenodd" clip-rule="evenodd" d="M36.5059 21.8913C36.5059 21.6913 36.5853 21.4994 36.7268 21.358C36.8683 21.2165 37.0601 21.137 37.2602 21.137H40.8617C41.0617 21.137 41.2536 21.2165 41.395 21.358C41.5365 21.4994 41.616 21.6913 41.616 21.8913V24.5234C41.616 24.7235 41.5365 24.9154 41.395 25.0568C41.2536 25.1983 41.0617 25.2778 40.8617 25.2778H37.2602C37.0601 25.2778 36.8683 25.1983 36.7268 25.0568C36.5853 24.9154 36.5059 24.7235 36.5059 24.5234V21.8913Z" fill="#FFC107"/>
<path fill-rule="evenodd" clip-rule="evenodd" d="M66.0685 73.7661L48.8267 73.389V50.7995H65.3431V50.0452C65.3431 49.6295 65.6801 50.4223 66.0974 50.4223C66.2975 50.4223 66.4893 50.5018 66.6308 50.6433C66.7722 50.7847 66.8517 50.9766 66.8517 51.1766V73.0134C66.8501 73.4291 66.5131 73.7661 66.0685 73.7661Z" fill="#EF5350"/>
<path fill-rule="evenodd" clip-rule="evenodd" d="M48.8267 53.2486V50.7995H65.3431V50.0452C65.3431 49.6295 65.6801 50.4223 66.0974 50.4223C66.2975 50.4223 66.4893 50.5018 66.6308 50.6433C66.7722 50.7847 66.8517 50.9766 66.8517 51.1766V53.2486H48.8267Z" fill="#D74B48"/>
<path fill-rule="evenodd" clip-rule="evenodd" d="M50.1058 73.4179L48.8267 73.3906V50.7995H50.1459V73.0134C50.1459 73.1515 50.1315 73.2863 50.1058 73.4179Z" fill="#D74B48"/>
<path d="M11.2715 44.8468C11.2715 44.8323 26.1027 45.8194 29.2949 45.6011V73.3906C26.4125 73.3906 11.2715 73.2044 11.2715 73.0134V44.8468Z" fill="#FE9738"/>
<path d="M11.2715 44.8468C11.2715 44.8323 26.1027 45.8194 29.2949 45.6011V48.0502H11.2715V44.8468Z" fill="#E58832"/>
<path d="M27.9756 45.6316C28.5181 45.6316 28.9674 45.622 29.2948 45.5995V73.389C28.9915 73.389 28.5518 73.3874 28.0093 73.3826C27.9868 73.2622 27.9756 73.1386 27.9756 73.0118V45.6316Z" fill="#E58832"/>
<path d="M18.4663 56.9496C18.4186 57.1405 18.2979 57.3051 18.1302 57.4081C17.9624 57.511 17.761 57.5441 17.5692 57.5002C17.3773 57.4562 17.2104 57.3388 17.1041 57.1732C16.9979 57.0075 16.9608 56.8068 17.001 56.6141C17.1952 55.7732 17.667 55.0541 18.3058 54.5454C18.9445 54.0366 19.7518 53.7381 20.6121 53.7381C21.636 53.7381 22.5621 54.1538 23.2329 54.8246C23.9038 55.4955 24.3195 56.4232 24.3195 57.4455C24.3195 58.7407 22.4128 60.5398 20.5382 62.3085C20.0198 62.7964 19.5047 63.2827 19.044 63.7433H24.748C24.948 63.7433 25.1399 63.8228 25.2814 63.9642C25.4228 64.1057 25.5023 64.2975 25.5023 64.4976C25.5023 64.6977 25.4228 64.8895 25.2814 65.031C25.1399 65.1725 24.948 65.2519 24.748 65.2519H17.3316V65.2503C17.1663 65.2503 16.9993 65.1958 16.8613 65.085C16.7843 65.0233 16.7202 64.947 16.6727 64.8605C16.6252 64.7741 16.5953 64.679 16.5845 64.581C16.5738 64.4829 16.5825 64.3836 16.6102 64.2889C16.6378 64.1942 16.6839 64.1059 16.7458 64.029C17.4214 63.1864 18.4598 62.2058 19.5095 61.2171C21.1481 59.6716 22.814 58.1003 22.814 57.4503C22.814 56.842 22.5685 56.2932 22.1705 55.8951C21.7724 55.4971 21.2219 55.2516 20.6153 55.2516C20.1017 55.2516 19.6234 55.4281 19.2447 55.7282C18.8611 56.0251 18.5802 56.4504 18.4663 56.9496Z" fill="white"/>
<path d="M30.0492 46.7293H9.94572C8.95066 46.7293 8.04708 46.3233 7.39387 45.6685C6.73906 45.0137 6.33301 44.1101 6.33301 43.1166C6.33301 42.1216 6.73906 41.218 7.39387 40.5648C8.04869 39.91 8.95227 39.5039 9.94572 39.5039H30.0492C30.2492 39.5039 30.4411 39.5834 30.5826 39.7248C30.724 39.8663 30.8035 40.0582 30.8035 40.2582V45.9766C30.8029 46.1763 30.7231 46.3677 30.5818 46.5087C30.4404 46.6498 30.2489 46.7291 30.0492 46.7293Z" fill="#D38032"/>
<path d="M30.049 46.7294H27.9771V39.5023H30.049C30.2491 39.5023 30.4409 39.5818 30.5824 39.7233C30.7239 39.8647 30.8033 40.0566 30.8033 40.2566V45.975C30.8017 46.3923 30.4647 46.7294 30.049 46.7294Z" fill="#BF732E"/>
<path fill-rule="evenodd" clip-rule="evenodd" d="M68.1761 51.9294H48.0727C47.8726 51.9294 47.6808 51.8499 47.5393 51.7084C47.3978 51.567 47.3184 51.3751 47.3184 51.175V45.4567C47.3184 45.2566 47.3978 45.0647 47.5393 44.9233C47.6808 44.7818 47.8726 44.7023 48.0727 44.7023H68.1761C69.1712 44.7023 70.0748 45.1084 70.728 45.7632C71.3828 46.418 71.7889 47.3216 71.7889 48.315C71.7889 49.3101 71.3828 50.2137 70.728 50.8669C70.0748 51.5233 69.1712 51.9294 68.1761 51.9294Z" fill="#C74946"/>
<path fill-rule="evenodd" clip-rule="evenodd" d="M50.1461 51.9294H48.0741C47.8741 51.9294 47.6822 51.8499 47.5408 51.7084C47.3993 51.567 47.3198 51.3751 47.3198 51.175V45.4567C47.3198 45.2566 47.3993 45.0647 47.5408 44.9233C47.6822 44.7818 47.8741 44.7023 48.0741 44.7023H50.1461V51.9294Z" fill="#B44240"/>
<path fill-rule="evenodd" clip-rule="evenodd" d="M45.0282 28.9916C45.0282 29.1916 44.9487 29.3835 44.8073 29.525C44.6658 29.6664 44.4739 29.7459 44.2739 29.7459H33.8466C33.6465 29.7459 33.4547 29.6664 33.3132 29.525C33.1718 29.3835 33.0923 29.1916 33.0923 28.9916V26.7575C33.0923 25.1124 34.4356 23.7691 36.0807 23.7691H42.0382C42.8599 23.7691 43.6078 24.1045 44.1487 24.647C44.6896 25.1879 45.025 25.9358 45.025 26.7575V28.9916H45.0282Z" fill="#754C24"/>
<path fill-rule="evenodd" clip-rule="evenodd" d="M35.562 18.9591C35.5411 19.0971 35.4817 19.2303 35.3822 19.3411C35.1078 19.6508 34.6327 19.6813 34.323 19.4053C33.0599 18.2883 32.0343 16.9096 31.3346 15.356C30.6392 13.8133 30.2803 12.1403 30.2817 10.4481C30.2817 9.45467 30.4053 8.48368 30.6364 7.55282C30.8723 6.60654 31.2238 5.69289 31.6829 4.83245C31.7471 4.7124 31.8426 4.612 31.9593 4.54192C32.076 4.47183 32.2096 4.43469 32.3457 4.43442V4.43121H45.7742C45.923 4.43103 46.0684 4.47501 46.1921 4.55758C46.3158 4.64016 46.4123 4.75761 46.4692 4.89504C46.912 5.73736 47.2525 6.62962 47.4835 7.55282C47.7162 8.48368 47.8382 9.45467 47.8382 10.4481C47.8382 12.1943 47.4626 13.857 46.7853 15.356C46.0856 16.9096 45.06 18.2883 43.7969 19.4053C43.6479 19.5371 43.4526 19.6043 43.254 19.5923C43.0554 19.5802 42.8697 19.4899 42.7377 19.3411C42.6422 19.2338 42.5797 19.1011 42.5579 18.9591H35.562Z" fill="#FFC107"/>
<path d="M39.6676 8.96034L40.5952 10.1785L42.0525 10.6889C42.1632 10.7274 42.2633 10.7913 42.3449 10.8755C42.4264 10.9596 42.4872 11.0617 42.5223 11.1735C42.5574 11.2853 42.5658 11.4038 42.5469 11.5194C42.5281 11.6351 42.4824 11.7447 42.4136 11.8396L41.5421 13.0979L41.5084 14.6402C41.5043 14.8393 41.4215 15.0287 41.2779 15.1668C41.1344 15.3049 40.942 15.3804 40.7429 15.3769C40.6739 15.3753 40.6065 15.364 40.5439 15.3464V15.348L39.0625 14.9034L37.5812 15.348C37.1831 15.4668 36.7642 15.2405 36.6455 14.8424C36.6198 14.759 36.6102 14.6739 36.615 14.5905L36.5813 13.0995L35.7002 11.8268C35.6341 11.7308 35.5911 11.6209 35.5748 11.5055C35.5585 11.3902 35.5692 11.2726 35.6061 11.1621C35.6429 11.0516 35.705 10.9512 35.7874 10.8688C35.8697 10.7864 35.9701 10.7242 36.0805 10.6872L37.5282 10.1817L38.4655 8.95071C38.5254 8.87216 38.6002 8.80619 38.6857 8.75658C38.7711 8.70697 38.8655 8.67468 38.9634 8.66156C39.0614 8.64845 39.1609 8.65476 39.2564 8.68014C39.3519 8.70552 39.4414 8.74946 39.5199 8.80947C39.5761 8.8528 39.6258 8.90416 39.6676 8.96034Z" fill="white"/>
<path fill-rule="evenodd" clip-rule="evenodd" d="M48.827 73.0118C48.827 73.2119 48.7475 73.4038 48.6061 73.5452C48.4646 73.6867 48.2728 73.7662 48.0727 73.7662H30.0492C29.8492 73.7662 29.6573 73.6867 29.5159 73.5452C29.3744 73.4038 29.2949 73.2119 29.2949 73.0118V34.7116C29.2949 34.5115 29.3744 34.3197 29.5159 34.1782C29.6573 34.0367 29.8492 33.9573 30.0492 33.9573H48.0727C48.2728 33.9573 48.4646 34.0367 48.6061 34.1782C48.7475 34.3197 48.827 34.5115 48.827 34.7116V73.0118Z" fill="#FED402"/>
<path fill-rule="evenodd" clip-rule="evenodd" d="M29.2949 36.7836V34.7116C29.2949 34.5115 29.3744 34.3197 29.5159 34.1782C29.6573 34.0367 29.8492 33.9573 30.0492 33.9573H48.0727C48.2728 33.9573 48.4646 34.0367 48.6061 34.1782C48.7475 34.3197 48.827 34.5115 48.827 34.7116V36.7836H29.2949Z" fill="#FEBF02"/>
<path fill-rule="evenodd" clip-rule="evenodd" d="M53.3978 34.405C52.743 35.0599 51.8394 35.4659 50.8459 35.4659H27.2758C26.2807 35.4659 25.3772 35.0599 24.724 34.405C24.0691 33.7502 23.6631 32.8467 23.6631 31.8532C23.6631 30.8581 24.0691 29.9562 24.724 29.3013C25.3788 28.6465 26.2823 28.2405 27.2758 28.2405H50.8459C51.8394 28.2405 52.743 28.6465 53.3978 29.3013C54.0526 29.9562 54.4586 30.8597 54.4586 31.8532C54.4586 32.8467 54.0526 33.7502 53.3978 34.405Z" fill="#FEAC02"/>
<path d="M36.3808 46.9878C36.1807 46.9878 35.9889 46.9083 35.8474 46.7668C35.7059 46.6254 35.6265 46.4335 35.6265 46.2334C35.6265 46.0334 35.7059 45.8415 35.8474 45.7001C35.9889 45.5586 36.1807 45.4791 36.3808 45.4791H41.7397C41.9397 45.4791 42.1316 45.5586 42.2731 45.7001C42.4145 45.8415 42.494 46.0334 42.494 46.2334V61.4884C42.494 61.6884 42.4145 61.8803 42.2731 62.0218C42.1316 62.1632 41.9397 62.2427 41.7397 62.2427C41.5396 62.2427 41.3478 62.1632 41.2063 62.0218C41.0648 61.8803 40.9854 61.6884 40.9854 61.4884V46.9878H36.3808ZM53.5103 64.9149C53.5103 64.7149 53.5898 64.523 53.7312 64.3815C53.8727 64.2401 54.0646 64.1606 54.2646 64.1606C54.4647 64.1606 54.6565 64.2401 54.798 64.3815C54.9395 64.523 55.0189 64.7149 55.0189 64.9149C55.0189 65.4863 55.25 66.0031 55.624 66.377C55.9979 66.751 56.5147 66.9821 57.0861 66.9821C57.6575 66.9821 58.1742 66.751 58.5482 66.377C58.9221 66.0031 59.1533 65.4863 59.1533 64.9149C59.1533 64.3436 58.9221 63.8268 58.5482 63.4528C58.1742 63.0789 57.6575 62.8478 57.0861 62.8478V61.3407C57.6575 61.3407 58.1742 61.1096 58.5482 60.7357C58.9221 60.3617 59.1533 59.8449 59.1533 59.2736C59.1533 58.7022 58.9221 58.1854 58.5482 57.8115C58.1742 57.4375 57.6575 57.2064 57.0861 57.2064C56.5147 57.2064 55.9979 57.4375 55.624 57.8115C55.25 58.1854 55.0189 58.7022 55.0189 59.2736C55.0189 59.4736 54.9395 59.6655 54.798 59.807C54.6565 59.9484 54.4647 60.0279 54.2646 60.0279C54.0646 60.0279 53.8727 59.9484 53.7312 59.807C53.5898 59.6655 53.5103 59.4736 53.5103 59.2736C53.5103 58.2865 53.9099 57.3926 54.5567 56.7458C55.2035 56.099 56.0975 55.6994 57.0845 55.6994C58.0715 55.6994 58.9655 56.099 59.6123 56.7458C60.2591 57.3926 60.6587 58.2865 60.6587 59.2736C60.6587 60.2606 60.2591 61.1546 59.6123 61.8013C59.5079 61.9057 59.3972 62.0036 59.28 62.0951C59.3972 62.1865 59.5079 62.2844 59.6123 62.3888C60.2591 63.0355 60.6587 63.9295 60.6587 64.9165C60.6587 65.9036 60.2591 66.7975 59.6123 67.4443C58.9655 68.0911 58.0715 68.4907 57.0845 68.4907C56.0975 68.4907 55.2035 68.0911 54.5567 67.4443C53.9099 66.7975 53.5103 65.902 53.5103 64.9149Z" fill="white"/>
<path fill-rule="evenodd" clip-rule="evenodd" d="M42.9624 22.6441H35.1576C34.8108 22.6438 34.4783 22.5058 34.2332 22.2605C34.1116 22.1392 34.0151 21.9951 33.9493 21.8365C33.8835 21.6779 33.8496 21.5078 33.8496 21.336V19.2817C33.8496 18.9254 33.9957 18.5996 34.2316 18.3621L34.2332 18.3605L34.2348 18.3589L34.2364 18.3573C34.3572 18.2359 34.5007 18.1396 34.6588 18.0738C34.8169 18.0079 34.9864 17.9739 35.1576 17.9737H42.9624C43.3187 17.9737 43.6445 18.1197 43.8821 18.3557L43.8837 18.3573L43.8853 18.3589L43.8869 18.3605C44.0083 18.4813 44.1046 18.6248 44.1704 18.7829C44.2362 18.941 44.2702 19.1105 44.2705 19.2817V21.336C44.2705 21.6972 44.1244 22.023 43.8869 22.2605C43.7658 22.3824 43.6218 22.4791 43.4631 22.5449C43.3044 22.6108 43.1343 22.6445 42.9624 22.6441Z" fill="#FFAE06"/>
</svg>
