<svg width="70" height="70" viewBox="0 0 70 70" fill="none" xmlns="http://www.w3.org/2000/svg">
<path d="M26.2492 5.83337V5.08337V5.83337ZM23.3325 5.83337V6.58337V5.83337ZM5.83254 23.3334H5.08254H5.83254ZM5.83254 46.6667H6.58254H5.83254ZM23.3325 64.1667V64.9167V64.1667ZM26.2492 64.1667V63.4167V64.1667ZM41.1864 61.6039L40.6561 61.0736L40.6561 61.0736L41.1864 61.6039ZM41.1864 8.39619L41.7167 7.86586L41.7167 7.86586L41.1864 8.39619ZM44.4941 20.4125C44.4964 20.8267 44.1625 21.1644 43.7483 21.1667C43.3341 21.169 42.9965 20.8351 42.9942 20.4209L43.7441 20.4167L44.4941 20.4125ZM42.9942 49.5792C42.9965 49.165 43.3341 48.8311 43.7483 48.8334C44.1625 48.8357 44.4964 49.1733 44.4941 49.5875L43.7441 49.5834L42.9942 49.5792ZM26.2498 35.75C25.8356 35.75 25.4998 35.4143 25.4998 35C25.4998 34.5858 25.8356 34.25 26.2498 34.25V35V35.75ZM64.1665 35L64.6546 34.4306C64.8208 34.5731 64.9165 34.7811 64.9165 35C64.9165 35.219 64.8208 35.427 64.6546 35.5695L64.1665 35ZM53.4701 26.8195C53.1556 26.5499 53.1192 26.0764 53.3887 25.7619C53.6583 25.4475 54.1318 25.411 54.4463 25.6806L53.9582 26.25L53.4701 26.8195ZM54.4463 44.3195C54.1318 44.589 53.6583 44.5526 53.3887 44.2381C53.1192 43.9236 53.1556 43.4502 53.4701 43.1806L53.9582 43.75L54.4463 44.3195ZM26.2492 5.83337V6.58337H23.3325V5.83337V5.08337H26.2492V5.83337ZM5.83254 23.3334H6.58254V46.6667H5.83254H5.08254V23.3334H5.83254ZM23.3325 64.1667V63.4167H26.2492V64.1667V64.9167H23.3325V64.1667ZM26.2492 64.1667V63.4167C30.3952 63.4167 33.4292 63.4151 35.7504 63.103C38.05 62.7939 39.5372 62.1924 40.6561 61.0736L41.1864 61.6039L41.7167 62.1342C40.2727 63.5782 38.4162 64.2581 35.9503 64.5897C33.5059 64.9183 30.3528 64.9167 26.2492 64.9167V64.1667ZM5.83254 46.6667H6.58254C6.58254 50.8127 6.58413 53.8467 6.8962 56.1679C7.20537 58.4675 7.80685 59.9547 8.92569 61.0736L8.39535 61.6039L7.86502 62.1342C6.42104 60.6902 5.74111 58.8337 5.40958 56.3678C5.08095 53.9234 5.08254 50.7703 5.08254 46.6667H5.83254ZM23.3325 64.1667V64.9167C19.229 64.9167 16.0758 64.9183 13.6315 64.5897C11.1656 64.2581 9.30901 63.5782 7.86502 62.1342L8.39535 61.6039L8.92569 61.0736C10.0445 62.1924 11.5318 62.7939 13.8313 63.103C16.1525 63.4151 19.1865 63.4167 23.3325 63.4167V64.1667ZM23.3325 5.83337V6.58337C19.1865 6.58337 16.1525 6.58497 13.8313 6.89704C11.5318 7.20621 10.0445 7.80769 8.92569 8.92652L8.39535 8.39619L7.86502 7.86586C9.30901 6.42187 11.1656 5.74195 13.6315 5.41041C16.0758 5.08178 19.229 5.08337 23.3325 5.08337V5.83337ZM5.83254 23.3334H5.08254C5.08254 19.2298 5.08095 16.0766 5.40958 13.6323C5.74111 11.1664 6.42104 9.30984 7.86502 7.86586L8.39535 8.39619L8.92569 8.92652C7.80685 10.0454 7.20537 11.5326 6.8962 13.8322C6.58413 16.1533 6.58254 19.1874 6.58254 23.3334H5.83254ZM26.2492 5.83337V5.08337C30.3528 5.08337 33.5059 5.08178 35.9503 5.41041C38.4162 5.74195 40.2727 6.42187 41.7167 7.86586L41.1864 8.39619L40.6561 8.92652C39.5372 7.80769 38.05 7.20621 35.7504 6.89704C33.4292 6.58497 30.3952 6.58337 26.2492 6.58337V5.83337ZM43.7441 20.4167L42.9942 20.4209C42.9765 17.243 42.896 14.8613 42.5548 13.0034C42.2175 11.167 41.6359 9.90634 40.6561 8.92652L41.1864 8.39619L41.7167 7.86586C42.978 9.12716 43.6577 10.7048 44.0301 12.7324C44.3986 14.7386 44.4765 17.2466 44.4941 20.4125L43.7441 20.4167ZM43.7441 49.5834L44.4941 49.5875C44.4765 52.7535 44.3986 55.2615 44.0301 57.2676C43.6577 59.2952 42.978 60.8729 41.7167 62.1342L41.1864 61.6039L40.6561 61.0736C41.6359 60.0937 42.2175 58.8331 42.5548 56.9966C42.896 55.1388 42.9765 52.7571 42.9942 49.5792L43.7441 49.5834ZM26.2498 35V34.25H64.1665V35V35.75H26.2498V35ZM64.1665 35L63.6784 35.5695L53.4701 26.8195L53.9582 26.25L54.4463 25.6806L64.6546 34.4306L64.1665 35ZM64.1665 35L64.6546 35.5695L54.4463 44.3195L53.9582 43.75L53.4701 43.1806L63.6784 34.4306L64.1665 35Z" fill="#FFD33A"/>
</svg>
