<svg width="54" height="54" viewBox="0 0 54 54" fill="none" xmlns="http://www.w3.org/2000/svg">
<path d="M27.0002 0C18.3152 0 11.2502 7.065 11.2502 15.75C11.2502 24.435 18.3152 31.5 27.0002 31.5C35.6852 31.5 42.7502 24.435 42.7502 15.75C42.7502 7.065 35.6852 0 27.0002 0ZM35.521 15.2032L32.4587 18.342L33.1855 22.7925C33.2359 23.1049 33.1974 23.4251 33.0746 23.7167C32.9517 24.0082 32.7493 24.2594 32.4905 24.4415C32.2317 24.6235 31.927 24.7292 31.611 24.7463C31.2951 24.7635 30.9807 24.6915 30.7037 24.5385L27.0002 22.4932L23.2967 24.5407C23.0196 24.6955 22.7045 24.7688 22.3875 24.7523C22.0705 24.7358 21.7647 24.6302 21.5051 24.4475C21.2456 24.2648 21.0429 24.0126 20.9204 23.7198C20.7979 23.427 20.7606 23.1056 20.8127 22.7925L21.5395 18.342L18.4795 15.2032C18.2629 14.9811 18.1118 14.7036 18.0427 14.4012C17.9736 14.0987 17.9892 13.7831 18.0877 13.4889C18.1863 13.1948 18.3641 12.9335 18.6015 12.7338C18.8389 12.5341 19.1268 12.4037 19.4335 12.357L23.5982 11.7203L25.4747 7.722C26.0282 6.53625 27.9745 6.53625 28.528 7.722L30.4045 11.7203L34.5692 12.357C34.8766 12.4026 35.1654 12.5324 35.4036 12.732C35.6417 12.9317 35.82 13.1933 35.9185 13.4881C36.0171 13.7828 36.0321 14.099 35.9619 14.4018C35.8918 14.7045 35.7391 14.9819 35.521 15.2032ZM13.4102 29.205L4.70273 44.8425C4.41023 45.3825 4.43273 46.0575 4.77023 46.575C5.10773 47.0925 5.69273 47.4075 6.32273 47.34L13.2527 46.8225L16.3127 53.055C16.6052 53.6175 17.1677 53.9775 17.7752 54H17.8202C18.4277 54 19.0127 53.6625 19.3052 53.145L24.9752 43.065L19.4627 33.3225C17.2005 32.3497 15.1458 30.9519 13.4102 29.205ZM49.2752 44.8425L40.5002 29.295C37.5815 32.2152 33.7896 34.1032 29.7002 34.6725C28.8227 34.8075 27.9227 34.875 27.0002 34.875C26.0102 34.875 25.0427 34.8075 24.0977 34.65L26.9102 39.6225L34.5377 53.145C34.8302 53.6625 35.3927 54 36.0002 54H36.0452C36.6752 53.9775 37.2377 53.6175 37.5302 53.055L40.6127 46.8225L47.6777 47.3625C48.3077 47.4075 48.8927 47.115 49.2302 46.575C49.5677 46.0575 49.5902 45.3825 49.2752 44.8425Z" fill="#FFFF84"/>
<path d="M27.0002 0C18.3152 0 11.2502 7.065 11.2502 15.75C11.2502 24.435 18.3152 31.5 27.0002 31.5C35.6852 31.5 42.7502 24.435 42.7502 15.75C42.7502 7.065 35.6852 0 27.0002 0ZM35.521 15.2032L32.4587 18.342L33.1855 22.7925C33.2359 23.1049 33.1974 23.4251 33.0746 23.7167C32.9517 24.0082 32.7493 24.2594 32.4905 24.4415C32.2317 24.6235 31.927 24.7292 31.611 24.7463C31.2951 24.7635 30.9807 24.6915 30.7037 24.5385L27.0002 22.4932L23.2967 24.5407C23.0196 24.6955 22.7045 24.7688 22.3875 24.7523C22.0705 24.7358 21.7647 24.6302 21.5051 24.4475C21.2456 24.2648 21.0429 24.0126 20.9204 23.7198C20.7979 23.427 20.7606 23.1056 20.8127 22.7925L21.5395 18.342L18.4795 15.2032C18.2629 14.9811 18.1118 14.7036 18.0427 14.4012C17.9736 14.0987 17.9892 13.7831 18.0877 13.4889C18.1863 13.1948 18.3641 12.9335 18.6015 12.7338C18.8389 12.5341 19.1268 12.4037 19.4335 12.357L23.5982 11.7203L25.4747 7.722C26.0282 6.53625 27.9745 6.53625 28.528 7.722L30.4045 11.7203L34.5692 12.357C34.8766 12.4026 35.1654 12.5324 35.4036 12.732C35.6417 12.9317 35.82 13.1933 35.9185 13.4881C36.0171 13.7828 36.0321 14.099 35.9619 14.4018C35.8918 14.7045 35.7391 14.9819 35.521 15.2032ZM13.4102 29.205L4.70273 44.8425C4.41023 45.3825 4.43273 46.0575 4.77023 46.575C5.10773 47.0925 5.69273 47.4075 6.32273 47.34L13.2527 46.8225L16.3127 53.055C16.6052 53.6175 17.1677 53.9775 17.7752 54H17.8202C18.4277 54 19.0127 53.6625 19.3052 53.145L24.9752 43.065L19.4627 33.3225C17.2005 32.3497 15.1458 30.9519 13.4102 29.205ZM49.2752 44.8425L40.5002 29.295C37.5815 32.2152 33.7896 34.1032 29.7002 34.6725C28.8227 34.8075 27.9227 34.875 27.0002 34.875C26.0102 34.875 25.0427 34.8075 24.0977 34.65L26.9102 39.6225L34.5377 53.145C34.8302 53.6625 35.3927 54 36.0002 54H36.0452C36.6752 53.9775 37.2377 53.6175 37.5302 53.055L40.6127 46.8225L47.6777 47.3625C48.3077 47.4075 48.8927 47.115 49.2302 46.575C49.5677 46.0575 49.5902 45.3825 49.2752 44.8425Z" fill="url(#paint0_linear_2330_5590)"/>
<defs>
<linearGradient id="paint0_linear_2330_5590" x1="26.3269" y1="97.7143" x2="32.455" y2="2.31792" gradientUnits="userSpaceOnUse">
<stop stop-color="#F2C36B" stop-opacity="0"/>
<stop offset="1" stop-color="#DD8F1F"/>
</linearGradient>
</defs>
</svg>
