<svg width="29" height="34" viewBox="0 0 29 34" fill="none" xmlns="http://www.w3.org/2000/svg">
<path d="M14.4687 16.3779C16.7187 16.3779 18.667 15.5709 20.259 13.9787C21.8509 12.3868 22.6579 10.439 22.6579 8.18872C22.6579 5.93915 21.8509 3.99113 20.2587 2.39865C18.6665 0.806966 16.7184 0 14.4687 0C12.2184 0 10.2705 0.806966 8.67864 2.39892C7.08676 3.99087 6.27946 5.93895 6.27946 8.18872C6.27946 10.439 7.08669 12.387 8.67891 13.979C10.2711 15.5707 12.2192 16.3779 14.4687 16.3779ZM28.7976 26.1442C28.7516 25.4818 28.6588 24.759 28.5221 23.9959C28.3841 23.227 28.2065 22.5002 27.9937 21.8359C27.774 21.1492 27.4752 20.4712 27.1058 19.8214C26.7224 19.147 26.2721 18.5597 25.7668 18.0764C25.2384 17.5709 24.5914 17.1644 23.8433 16.8679C23.0978 16.573 22.2716 16.4236 21.3879 16.4236C21.0408 16.4236 20.7052 16.566 20.0569 16.988C19.5961 17.2881 19.1339 17.5861 18.6704 17.8819C18.225 18.1657 17.6217 18.4316 16.8764 18.6723C16.1493 18.9076 15.4111 19.0269 14.6824 19.0269C13.9538 19.0269 13.2158 18.9076 12.4879 18.6723C11.7435 18.4318 11.1401 18.166 10.6952 17.8821C10.1792 17.5524 9.71239 17.2515 9.30744 16.9877C8.65998 16.5657 8.32404 16.4233 7.977 16.4233C7.09294 16.4233 6.26704 16.5729 5.52177 16.8682C4.77417 17.1642 4.12698 17.5706 3.59805 18.0767C3.09304 18.5602 2.64247 19.1472 2.25958 19.8214C1.89049 20.4712 1.59166 21.149 1.37166 21.8362C1.15916 22.5005 0.981526 23.227 0.843534 23.9959C0.706804 24.758 0.613969 25.481 0.568016 26.145C0.522303 26.8133 0.499645 27.4829 0.500082 28.1528C0.500082 29.9276 1.06427 31.3643 2.17683 32.424C3.27565 33.4697 4.72955 34.0001 6.49761 34.0001H22.8688C24.6369 34.0001 26.0902 33.4699 27.1893 32.4241C28.3021 31.3651 28.8663 29.9281 28.8663 28.1525C28.8661 27.4674 28.843 26.7917 28.7976 26.1442Z" fill="url(#paint0_linear_2330_8844)"/>
<defs>
<linearGradient id="paint0_linear_2330_8844" x1="14.6832" y1="0" x2="14.6832" y2="34.0001" gradientUnits="userSpaceOnUse">
<stop stop-color="#FFC400"/>
<stop offset="1" stop-color="#EF5261" stop-opacity="0.8"/>
</linearGradient>
</defs>
</svg>
