<svg width="31" height="31" viewBox="0 0 31 31" fill="none" xmlns="http://www.w3.org/2000/svg">
<path d="M15.6552 5.23795C15.6552 5.23795 18.0729 0.229079 23.8471 0.812978C23.9745 0.827141 24.0975 0.867824 24.2082 0.932406C24.3189 0.996989 24.4148 1.08404 24.4899 1.18795C25.1246 2.03363 25.4504 3.07125 25.4131 4.12798C25.304 6.05774 18.1786 7.54422 18.1786 7.54422L16.6685 7.24426L15.6552 5.23795Z" fill="#F6C863"/>
<path d="M21.6796 6.00708C20.2056 6.55802 18.6452 6.84159 17.0716 6.84446C19.1734 4.94464 21.8497 3.80151 24.6754 3.59661C25.0084 3.56924 25.1329 3.95025 24.9038 4.19359C24.3875 4.74032 23.075 5.47458 21.6796 6.00708Z" fill="#EAB54E"/>
<path d="M15.6541 5.23795C15.6541 5.23795 13.2365 0.229079 7.46225 0.812978C7.33487 0.827141 7.21187 0.867824 7.10117 0.932406C6.99047 0.996989 6.89452 1.08404 6.81951 1.18795C6.18477 2.03363 5.85893 3.07125 5.89626 4.12798C6.00542 6.05774 13.1308 7.54422 13.1308 7.54422L14.6409 7.24426L15.6541 5.23795Z" fill="#F6C863"/>
<path d="M9.6297 6.00708C11.1037 6.55802 12.6641 6.84159 14.2377 6.84446C13.0622 5.79877 11.7102 4.97038 10.2447 4.39796C9.08398 3.96504 7.86876 3.69535 6.63385 3.59661C6.30088 3.56924 6.17635 3.95025 6.40547 4.19359C6.92 4.74032 8.2362 5.47458 9.6297 6.00708Z" fill="#EAB54E"/>
<path d="M15.5011 8.7218C16.5018 8.7218 17.3131 7.91054 17.3131 6.90979C17.3131 5.90904 16.5018 5.09778 15.5011 5.09778C14.5004 5.09778 13.6891 5.90904 13.6891 6.90979C13.6891 7.91054 14.5004 8.7218 15.5011 8.7218Z" fill="#EAB54E"/>
<path d="M0.871621 6.9093H30.1283C30.2269 6.90932 30.3214 6.94848 30.3911 7.01817C30.4608 7.08786 30.4999 7.18237 30.4999 7.28092V12.1131C30.4999 12.2117 30.4608 12.3062 30.3911 12.3759C30.3214 12.4456 30.2269 12.4847 30.1283 12.4848H0.871621C0.773066 12.4847 0.678554 12.4456 0.608865 12.3759C0.539176 12.3062 0.500018 12.2117 0.5 12.1131V7.28092C0.500018 7.18237 0.539176 7.08786 0.608865 7.01817C0.678554 6.94848 0.773066 6.90932 0.871621 6.9093Z" fill="#EF5261"/>
<path d="M29.0217 11.4625V29.8626C29.0214 29.9611 28.9821 30.0554 28.9125 30.1251C28.8429 30.1947 28.7485 30.234 28.6501 30.2343H2.35172C2.25326 30.234 2.15891 30.1947 2.08928 30.1251C2.01965 30.0554 1.9804 29.9611 1.9801 29.8626V11.4625H29.0217Z" fill="#EF5261"/>
<path d="M1.9801 12.4849H29.0221V13.7857H1.9801V12.4849Z" fill="#DA364C"/>
<path d="M13.3257 6.9093H17.6761V30.2339H13.3257V6.9093Z" fill="#F6C863"/>
<path d="M13.3246 12.4849H17.6772V13.7857H13.3246V12.4849Z" fill="#EAB54E"/>
</svg>
