<svg width="61" height="61" viewBox="0 0 61 61" fill="none" xmlns="http://www.w3.org/2000/svg">
<g clip-path="url(#clip0_2330_5580)">
<path d="M55.5457 17.4425C47.4887 4.20535 35.3515 13.4146 35.3515 13.4146C34.5643 14.0095 33.1129 14.4987 32.1266 14.5009L28.8756 14.5032C27.8894 14.5043 26.438 14.0152 25.6519 13.4203C25.6519 13.4203 13.5136 4.20876 5.45549 17.4459C-2.60034 30.6786 0.646111 45.0897 0.646111 45.0897C1.21486 48.6182 3.08948 50.9728 6.62713 50.6771C10.1545 50.3825 17.8111 41.1743 17.8111 41.1743C18.4436 40.4156 19.7688 39.7957 20.7527 39.7957L40.2428 39.7923C41.2278 39.7923 42.5519 40.4122 43.1832 41.1709C43.1832 41.1709 50.8409 50.3791 54.374 50.6737C57.9071 50.9694 59.7863 48.6125 60.3516 45.0862C60.3505 45.0862 63.6026 30.6774 55.5457 17.4425ZM23.1756 28.217H18.9964V32.2449C18.9964 32.2449 18.1114 32.9206 16.7418 32.9035C15.3746 32.8831 14.7558 32.1664 14.7558 32.1664V28.2181H10.8086C10.8086 28.2181 10.3161 27.7131 10.1841 26.3833C10.0544 25.0536 10.729 23.9786 10.729 23.9786H14.9093V19.7994C14.9093 19.7994 15.7693 19.3388 17.0057 19.374C17.747 19.3965 18.4763 19.5678 19.15 19.8779L19.1329 23.9775H23.08C23.08 23.9775 23.7694 24.8625 23.8262 25.9317C23.8831 27.0021 23.1756 28.217 23.1756 28.217ZM42.3449 32.808C41.9105 32.8083 41.4803 32.7229 41.079 32.5568C40.6777 32.3906 40.313 32.1469 40.006 31.8397C39.699 31.5324 39.4555 31.1676 39.2896 30.7662C39.1238 30.3647 39.0387 29.9345 39.0393 29.5001C39.0384 29.0657 39.1233 28.6353 39.289 28.2337C39.4548 27.8321 39.6982 27.4672 40.0053 27.1599C40.3124 26.8526 40.6772 26.6089 41.0786 26.4429C41.4801 26.2768 41.9104 26.1916 42.3449 26.1922C42.7866 26.1807 43.2261 26.2576 43.6376 26.4187C44.049 26.5797 44.4241 26.8215 44.7406 27.1298C45.0571 27.4381 45.3086 27.8067 45.4804 28.2138C45.6522 28.6209 45.7406 29.0583 45.7406 29.5001C45.7406 29.942 45.6522 30.3793 45.4804 30.7864C45.3086 31.1935 45.0571 31.5621 44.7406 31.8704C44.4241 32.1787 44.049 32.4205 43.6376 32.5815C43.2261 32.7426 42.7866 32.8196 42.3449 32.808ZM42.3449 23.7068C41.9106 23.7072 41.4804 23.622 41.0791 23.456C40.6778 23.2899 40.3131 23.0464 40.0061 22.7392C39.699 22.432 39.4556 22.0673 39.2897 21.6659C39.1238 21.2645 39.0387 20.8344 39.0393 20.4C39.0384 19.9656 39.1233 19.5352 39.289 19.1336C39.4548 18.7321 39.6982 18.3671 40.0053 18.0598C40.3124 17.7525 40.6772 17.5088 41.0786 17.3428C41.4801 17.1767 41.9104 17.0916 42.3449 17.0922C43.2223 17.0922 44.0638 17.4406 44.6843 18.061C45.3048 18.6813 45.6536 19.5226 45.6539 20.4C45.653 21.2772 45.304 22.1181 44.6836 22.7381C44.0631 23.3581 43.222 23.7065 42.3449 23.7068ZM50.5827 28.5924C50.1483 28.5928 49.7181 28.5076 49.3167 28.3415C48.9152 28.1753 48.5506 27.9317 48.2435 27.6244C47.9364 27.3171 47.693 26.9523 47.5272 26.5507C47.3613 26.1492 47.2764 25.7189 47.2771 25.2845C47.2764 24.8501 47.3613 24.4198 47.5272 24.0183C47.693 23.6168 47.9364 23.2519 48.2435 22.9446C48.5506 22.6373 48.9152 22.3937 49.3167 22.2276C49.7181 22.0615 50.1483 21.9762 50.5827 21.9766C51.46 21.9769 52.3013 22.3255 52.9218 22.9457C53.5423 23.566 53.8911 24.4072 53.8917 25.2845C53.8911 26.1618 53.5423 27.003 52.9218 27.6233C52.3013 28.2435 51.46 28.5921 50.5827 28.5924Z" fill="#FFFF84"/>
<path d="M55.5457 17.4425C47.4887 4.20535 35.3515 13.4146 35.3515 13.4146C34.5643 14.0095 33.1129 14.4987 32.1266 14.5009L28.8756 14.5032C27.8894 14.5043 26.438 14.0152 25.6519 13.4203C25.6519 13.4203 13.5136 4.20876 5.45549 17.4459C-2.60034 30.6786 0.646111 45.0897 0.646111 45.0897C1.21486 48.6182 3.08948 50.9728 6.62713 50.6771C10.1545 50.3825 17.8111 41.1743 17.8111 41.1743C18.4436 40.4156 19.7688 39.7957 20.7527 39.7957L40.2428 39.7923C41.2278 39.7923 42.5519 40.4122 43.1832 41.1709C43.1832 41.1709 50.8409 50.3791 54.374 50.6737C57.9071 50.9694 59.7863 48.6125 60.3516 45.0862C60.3505 45.0862 63.6026 30.6774 55.5457 17.4425ZM23.1756 28.217H18.9964V32.2449C18.9964 32.2449 18.1114 32.9206 16.7418 32.9035C15.3746 32.8831 14.7558 32.1664 14.7558 32.1664V28.2181H10.8086C10.8086 28.2181 10.3161 27.7131 10.1841 26.3833C10.0544 25.0536 10.729 23.9786 10.729 23.9786H14.9093V19.7994C14.9093 19.7994 15.7693 19.3388 17.0057 19.374C17.747 19.3965 18.4763 19.5678 19.15 19.8779L19.1329 23.9775H23.08C23.08 23.9775 23.7694 24.8625 23.8262 25.9317C23.8831 27.0021 23.1756 28.217 23.1756 28.217ZM42.3449 32.808C41.9105 32.8083 41.4803 32.7229 41.079 32.5568C40.6777 32.3906 40.313 32.1469 40.006 31.8397C39.699 31.5324 39.4555 31.1676 39.2896 30.7662C39.1238 30.3647 39.0387 29.9345 39.0393 29.5001C39.0384 29.0657 39.1233 28.6353 39.289 28.2337C39.4548 27.8321 39.6982 27.4672 40.0053 27.1599C40.3124 26.8526 40.6772 26.6089 41.0786 26.4429C41.4801 26.2768 41.9104 26.1916 42.3449 26.1922C42.7866 26.1807 43.2261 26.2576 43.6376 26.4187C44.049 26.5797 44.4241 26.8215 44.7406 27.1298C45.0571 27.4381 45.3086 27.8067 45.4804 28.2138C45.6522 28.6209 45.7406 29.0583 45.7406 29.5001C45.7406 29.942 45.6522 30.3793 45.4804 30.7864C45.3086 31.1935 45.0571 31.5621 44.7406 31.8704C44.4241 32.1787 44.049 32.4205 43.6376 32.5815C43.2261 32.7426 42.7866 32.8196 42.3449 32.808ZM42.3449 23.7068C41.9106 23.7072 41.4804 23.622 41.0791 23.456C40.6778 23.2899 40.3131 23.0464 40.0061 22.7392C39.699 22.432 39.4556 22.0673 39.2897 21.6659C39.1238 21.2645 39.0387 20.8344 39.0393 20.4C39.0384 19.9656 39.1233 19.5352 39.289 19.1336C39.4548 18.7321 39.6982 18.3671 40.0053 18.0598C40.3124 17.7525 40.6772 17.5088 41.0786 17.3428C41.4801 17.1767 41.9104 17.0916 42.3449 17.0922C43.2223 17.0922 44.0638 17.4406 44.6843 18.061C45.3048 18.6813 45.6536 19.5226 45.6539 20.4C45.653 21.2772 45.304 22.1181 44.6836 22.7381C44.0631 23.3581 43.222 23.7065 42.3449 23.7068ZM50.5827 28.5924C50.1483 28.5928 49.7181 28.5076 49.3167 28.3415C48.9152 28.1753 48.5506 27.9317 48.2435 27.6244C47.9364 27.3171 47.693 26.9523 47.5272 26.5507C47.3613 26.1492 47.2764 25.7189 47.2771 25.2845C47.2764 24.8501 47.3613 24.4198 47.5272 24.0183C47.693 23.6168 47.9364 23.2519 48.2435 22.9446C48.5506 22.6373 48.9152 22.3937 49.3167 22.2276C49.7181 22.0615 50.1483 21.9762 50.5827 21.9766C51.46 21.9769 52.3013 22.3255 52.9218 22.9457C53.5423 23.566 53.8911 24.4072 53.8917 25.2845C53.8911 26.1618 53.5423 27.003 52.9218 27.6233C52.3013 28.2435 51.46 28.5921 50.5827 28.5924Z" fill="url(#paint0_linear_2330_5580)"/>
</g>
<defs>
<linearGradient id="paint0_linear_2330_5580" x1="29.5891" y1="83.411" x2="32.1273" y2="11.8268" gradientUnits="userSpaceOnUse">
<stop stop-color="#F2C36B" stop-opacity="0"/>
<stop offset="1" stop-color="#DD8F1F"/>
</linearGradient>
<clipPath id="clip0_2330_5580">
<rect width="61" height="61" fill="white"/>
</clipPath>
</defs>
</svg>
