<svg width="31" height="30" viewBox="0 0 31 30" fill="none" xmlns="http://www.w3.org/2000/svg">
<path d="M17.8503 10.8012L18.4047 14.0327L15.503 12.507L12.6014 14.0327L13.1558 10.8012L10.8081 8.51355L14.0522 8.04159L15.503 5.10229L16.9539 8.04159L20.1979 8.51355L17.8503 10.8012ZM20.7596 25.5003H10.2883C14.1172 23.5859 13.3633 19.3987 13.4389 19.8706L13.66 19.9109C13.9092 19.9924 14.163 20.059 14.42 20.1104C14.7721 20.1812 15.1288 20.2259 15.4875 20.2442L15.5053 20.2476H15.5426L15.5578 20.2449C15.917 20.2267 16.2744 20.1822 16.6271 20.1119C16.9476 20.0476 17.2629 19.96 17.5706 19.8497C17.552 20.1013 17.2651 23.7527 20.7596 25.5003Z" fill="url(#paint0_linear_2330_9270)"/>
<path d="M21.5291 26.4856V29.2702H9.5188V26.4856C9.5188 26.3584 9.54386 26.2325 9.59254 26.115C9.64122 25.9975 9.71257 25.8907 9.80252 25.8008C9.89247 25.7109 9.99926 25.6396 10.1168 25.5909C10.2343 25.5423 10.3602 25.5173 10.4874 25.5173H20.5605C20.6876 25.5173 20.8136 25.5423 20.9311 25.5909C21.0486 25.6396 21.1554 25.7109 21.2454 25.8008C21.3353 25.8907 21.4067 25.9975 21.4553 26.115C21.504 26.2325 21.5291 26.3584 21.5291 26.4856Z" fill="#FFC400"/>
<path d="M22.21 15.6286C21.9865 15.6279 21.7703 15.5484 21.5996 15.4041C21.4289 15.2598 21.3146 15.0598 21.2767 14.8395C21.2389 14.6192 21.2799 14.3926 21.3927 14.1995C21.5054 14.0065 21.6826 13.8594 21.8931 13.7841C26.4729 12.1638 27.3309 10.3801 27.9765 8.21713C28.1665 7.57531 28.1768 7.07029 28.0012 6.75755C27.9164 6.61056 27.7855 6.49558 27.6288 6.43037L23.2786 6.41783C23.0266 6.41747 22.7851 6.31705 22.6072 6.13864C22.4293 5.96023 22.3296 5.71845 22.3299 5.4665C22.3303 5.21454 22.4307 4.97304 22.6091 4.79513C22.7875 4.61722 23.0293 4.51747 23.2813 4.51783H23.2839L27.7782 4.53075C27.842 4.53096 27.9057 4.53758 27.9682 4.55051C28.3106 4.63393 28.6331 4.78433 28.9171 4.99304C29.201 5.20175 29.4409 5.46463 29.6227 5.76651C30.0962 6.55843 30.1547 7.56657 29.7983 8.76243C29.4243 10.0164 28.917 11.3434 27.7463 12.5624C26.5914 13.7674 24.9343 14.7254 22.5262 15.577C22.4245 15.6119 22.3176 15.6294 22.21 15.6286ZM8.83708 15.6461C8.72965 15.6462 8.62298 15.6279 8.52168 15.5922C6.09652 14.7379 4.42566 13.778 3.264 12.5708C2.086 11.3483 1.57832 10.0164 1.20288 8.75901C0.845679 7.56315 0.904959 6.55501 1.37844 5.76309C1.56029 5.46121 1.80012 5.19833 2.08409 4.98962C2.36806 4.78091 2.69056 4.63051 3.03296 4.54709C3.09547 4.53416 3.15912 4.52754 3.22296 4.52733L7.75864 4.51441H7.76168C8.01364 4.51405 8.25541 4.6138 8.43382 4.79171C8.61223 4.96962 8.71266 5.21112 8.71301 5.46308C8.71336 5.71503 8.61361 5.95681 8.4357 6.13522C8.25779 6.31363 8.0163 6.41405 7.76434 6.41441L3.3723 6.42695C3.21561 6.49216 3.08474 6.60714 2.9999 6.75413C2.82434 7.06687 2.83308 7.57189 3.0246 8.21371C3.6706 10.3835 4.53472 12.1722 9.15362 13.7967C9.36534 13.871 9.54393 14.0178 9.65775 14.2111C9.77158 14.4045 9.8133 14.6319 9.77552 14.853C9.73775 15.0742 9.6229 15.2749 9.45135 15.4195C9.27979 15.5641 9.06259 15.6433 8.83822 15.6431L8.83708 15.6461Z" fill="#F9A825"/>
<path d="M24.9084 2.60946C24.8985 1.98284 24.8879 1.35546 24.8879 0.72998H6.1596C6.1596 1.35584 6.14896 1.98398 6.13946 2.60946C6.1064 4.69946 6.08018 6.7868 6.475 8.8464C6.66526 9.85673 6.91265 10.8554 7.216 11.8378C7.5998 13.0682 8.0862 14.2652 8.70674 15.3892C9.81672 17.4032 11.4564 19.1927 13.66 19.9112L15.4875 20.2441L15.5255 20.2464H15.5593L17.5733 19.8368V19.8504C19.683 19.092 21.2623 17.3447 22.34 15.3892C23.4572 13.3661 24.1397 11.1078 24.5729 8.8464C24.9673 6.7868 24.9411 4.69946 24.9084 2.60946ZM18.4047 14.0323L15.503 12.5069L12.6014 14.0323L13.1558 10.8023L10.8081 8.51428L14.0522 8.04308L15.503 5.1034L16.9539 8.04308L20.1979 8.51428L17.8503 10.8011L18.4047 14.0323Z" fill="#FFC400"/>
<defs>
<linearGradient id="paint0_linear_2330_9270" x1="15.5239" y1="5.10229" x2="15.5239" y2="25.5003" gradientUnits="userSpaceOnUse">
<stop stop-color="#F9A825"/>
<stop offset="1" stop-color="#EF5261"/>
</linearGradient>
</defs>
</svg>
