<svg width="74" height="74" viewBox="0 0 74 74" fill="none" xmlns="http://www.w3.org/2000/svg">
<path d="M53.1875 25.4375L67.0625 57.8125H37L53.1875 25.4375Z" fill="#FFB632"/>
<path d="M53.1875 25.4375C54.4647 25.4375 55.5 24.4022 55.5 23.125C55.5 21.8478 54.4647 20.8125 53.1875 20.8125C51.9103 20.8125 50.875 21.8478 50.875 23.125C50.875 24.4022 51.9103 25.4375 53.1875 25.4375Z" fill="#FFD33A"/>
<path d="M20.8125 25.4375L6.9375 57.8125H37L20.8125 25.4375Z" fill="#FFB632"/>
<path d="M37.0001 37C5.78138 37 6.93763 57.8125 6.93763 57.8125H67.0626C67.0626 57.8125 68.2189 37 37.0001 37Z" fill="#EB423F"/>
<path d="M68.2188 62.4375H5.78125C4.50403 62.4375 3.46875 61.4022 3.46875 60.125C3.46875 58.8478 4.50403 57.8125 5.78125 57.8125H68.2188C69.496 57.8125 70.5312 58.8478 70.5312 60.125C70.5312 61.4022 69.496 62.4375 68.2188 62.4375Z" fill="#FFB632"/>
<path d="M50.875 47.4062L37 16.1875L23.125 47.4062L5.78125 27.75L6.9375 57.8125H67.0625L68.2188 27.75L50.875 47.4062Z" fill="#FFD33A"/>
<path d="M37 53.1875L30.0625 46.25L37 30.0625L43.9375 46.25L37 53.1875Z" fill="#C7312E"/>
<path d="M37 43.9375V53.1875L30.0625 46.25L37 43.9375Z" fill="#962523"/>
<path d="M43.9375 46.25L37 43.9375V30.0625L43.9375 46.25Z" fill="#EB423F"/>
<path d="M5.78125 27.75C7.05841 27.75 8.09375 26.7147 8.09375 25.4375C8.09375 24.1603 7.05841 23.125 5.78125 23.125C4.50409 23.125 3.46875 24.1603 3.46875 25.4375C3.46875 26.7147 4.50409 27.75 5.78125 27.75Z" fill="#FFD33A"/>
<path d="M20.8125 25.4375C22.0897 25.4375 23.125 24.4022 23.125 23.125C23.125 21.8478 22.0897 20.8125 20.8125 20.8125C19.5353 20.8125 18.5 21.8478 18.5 23.125C18.5 24.4022 19.5353 25.4375 20.8125 25.4375Z" fill="#FFD33A"/>
<path d="M37 16.1875C38.2772 16.1875 39.3125 15.1522 39.3125 13.875C39.3125 12.5978 38.2772 11.5625 37 11.5625C35.7228 11.5625 34.6875 12.5978 34.6875 13.875C34.6875 15.1522 35.7228 16.1875 37 16.1875Z" fill="#FFD33A"/>
<path d="M68.2188 27.75C69.4959 27.75 70.5312 26.7147 70.5312 25.4375C70.5312 24.1603 69.4959 23.125 68.2188 23.125C66.9416 23.125 65.9062 24.1603 65.9062 25.4375C65.9062 26.7147 66.9416 27.75 68.2188 27.75Z" fill="#FFD33A"/>
<path d="M10.4062 39.3125L11.5625 53.1875H21.9688L10.4062 39.3125ZM63.5938 39.3125L62.4375 53.1875H52.0312L63.5938 39.3125Z" fill="#FFB632"/>
</svg>
